<svg xmlns="http://www.w3.org/2000/svg" width="1100" height="520" viewBox="0 0 1100 520" role="img">
<rect width="100%" height="100%" fill="#ffffff" />
<text x="70.0" y="38.0" font-family="Arial, sans-serif" font-size="24" font-weight="700" fill="#27313a" text-anchor="start">Strategy Equity Curves</text>
<text x="70.0" y="62.0" font-family="Arial, sans-serif" font-size="14" font-weight="400" fill="#596773" text-anchor="start">Each strategy is normalized to 100 at the period start</text>
<text x="70.0" y="74.0" font-family="Arial, sans-serif" font-size="15" font-weight="700" fill="#27313a" text-anchor="start">2021</text>
<line x1="70.0" y1="452.0" x2="542.0" y2="452.0" stroke="#e8edf1" stroke-width="1.0" />
<text x="61.0" y="456.0" font-family="Arial, sans-serif" font-size="11" font-weight="400" fill="#66737e" text-anchor="end">65</text>
<line x1="70.0" y1="409.6" x2="542.0" y2="409.6" stroke="#e8edf1" stroke-width="1.0" />
<text x="61.0" y="413.6" font-family="Arial, sans-serif" font-size="11" font-weight="400" fill="#66737e" text-anchor="end">75</text>
<line x1="70.0" y1="367.3" x2="542.0" y2="367.3" stroke="#e8edf1" stroke-width="1.0" />
<text x="61.0" y="371.3" font-family="Arial, sans-serif" font-size="11" font-weight="400" fill="#66737e" text-anchor="end">85</text>
<line x1="70.0" y1="324.9" x2="542.0" y2="324.9" stroke="#e8edf1" stroke-width="1.0" />
<text x="61.0" y="328.9" font-family="Arial, sans-serif" font-size="11" font-weight="400" fill="#66737e" text-anchor="end">95</text>
<line x1="70.0" y1="282.6" x2="542.0" y2="282.6" stroke="#e8edf1" stroke-width="1.0" />
<text x="61.0" y="286.6" font-family="Arial, sans-serif" font-size="11" font-weight="400" fill="#66737e" text-anchor="end">105</text>
<line x1="70.0" y1="240.2" x2="542.0" y2="240.2" stroke="#e8edf1" stroke-width="1.0" />
<text x="61.0" y="244.2" font-family="Arial, sans-serif" font-size="11" font-weight="400" fill="#66737e" text-anchor="end">115</text>
<line x1="70.0" y1="197.9" x2="542.0" y2="197.9" stroke="#e8edf1" stroke-width="1.0" />
<text x="61.0" y="201.9" font-family="Arial, sans-serif" font-size="11" font-weight="400" fill="#66737e" text-anchor="end">125</text>
<line x1="70.0" y1="155.5" x2="542.0" y2="155.5" stroke="#e8edf1" stroke-width="1.0" />
<text x="61.0" y="159.5" font-family="Arial, sans-serif" font-size="11" font-weight="400" fill="#66737e" text-anchor="end">135</text>
<line x1="70.0" y1="113.2" x2="542.0" y2="113.2" stroke="#e8edf1" stroke-width="1.0" />
<text x="61.0" y="117.2" font-family="Arial, sans-serif" font-size="11" font-weight="400" fill="#66737e" text-anchor="end">145</text>
<line x1="70.0" y1="92.0" x2="70.0" y2="452.0" stroke="#bcc7cf" stroke-width="1.0" />
<line x1="70.0" y1="452.0" x2="542.0" y2="452.0" stroke="#bcc7cf" stroke-width="1.0" />
<text x="70.0" y="482.0" font-family="Arial, sans-serif" font-size="11" font-weight="400" fill="#66737e" text-anchor="start">2020-12-31</text>
<text x="542.0" y="482.0" font-family="Arial, sans-serif" font-size="11" font-weight="400" fill="#66737e" text-anchor="end">2021-12-31</text>
<line x1="70.0" y1="303.8" x2="542.0" y2="303.8" stroke="#111827" stroke-width="1.2" stroke-dasharray="6 5" />
<polyline points="70.0,303.8 75.2,274.4 76.5,250.1 77.8,268.8 79.1,279.5 80.3,279.0 84.2,310.2 85.5,303.2 86.8,312.4 88.1,338.9 89.4,345.4 93.3,343.0 94.6,356.3 95.9,344.7 97.2,326.2 98.4,335.6 102.3,303.9 103.6,323.2 104.9,324.5 106.2,333.2 107.5,321.8 111.4,315.7 112.7,302.9 114.0,317.8 115.3,312.2 116.6,333.4 120.4,350.9 121.7,339.8 123.0,342.1 133.4,347.5 134.7,329.9 138.5,351.6 139.8,345.5 141.1,365.0 142.4,372.6 143.7,374.2 147.6,373.3 148.9,380.8 150.2,369.9 151.5,390.7 152.8,385.1 156.6,413.8 157.9,426.9 159.2,410.6 160.5,396.9 161.8,394.7 165.7,411.8 167.0,409.0 168.3,404.2 169.6,396.5 170.9,405.1 174.7,398.2 176.0,394.0 177.3,386.8 178.6,388.3 179.9,384.4 183.8,379.6 185.1,381.8 186.4,385.3 187.7,380.6 189.0,373.9 194.1,380.3 195.4,387.6 196.7,387.2 198.0,396.6 201.9,385.8 203.2,380.2 204.5,382.0 205.8,370.2 207.1,342.8 211.0,332.6 212.2,329.8 213.5,320.8 214.8,320.1 216.1,310.9 220.0,315.3 221.3,311.0 222.6,306.2 223.9,323.1 225.2,321.3 232.9,327.7 234.2,337.5 238.1,339.0 239.4,320.6 240.7,322.9 242.0,320.2 243.3,323.3 247.2,319.8 248.5,318.3 249.7,321.3 251.0,304.2 252.3,292.1 256.2,266.1 257.5,258.0 258.8,260.6 260.1,256.8 261.4,248.7 265.3,239.7 266.6,230.1 267.9,228.3 269.1,216.2 270.4,206.8 274.3,199.7 275.6,240.2 276.9,236.3 278.2,236.3 279.5,239.1 284.7,235.6 286.0,241.9 287.2,219.2 288.5,218.5 292.4,222.0 293.7,218.7 295.0,232.3 296.3,242.8 297.6,232.4 301.5,225.2 302.8,238.9 304.1,232.6 305.4,228.2 306.6,252.7 310.5,242.3 311.8,238.4 313.1,227.3 314.4,244.3 315.7,254.3 319.6,248.9 320.9,238.2 322.2,239.1 323.5,227.5 324.8,238.7 328.6,238.8 329.9,228.3 331.2,219.0 332.5,234.6 333.8,246.5 337.7,280.7 339.0,298.6 340.3,293.2 341.6,298.6 342.9,322.9 346.7,307.7 348.0,306.4 349.3,313.3 350.6,317.4 351.9,318.8 355.8,312.8 357.1,279.2 358.4,278.5 359.7,282.1 361.0,273.8 364.8,272.5 366.1,289.1 367.4,284.1 368.7,289.7 370.0,317.3 373.9,308.1 375.2,292.5 376.5,276.6 377.8,293.5 379.1,293.9 382.9,289.2 384.2,302.4 385.5,290.3 386.8,298.5 388.1,285.8 392.0,271.9 393.3,271.0 394.6,278.7 395.9,279.8 397.2,268.4 401.0,272.5 402.3,271.9 403.6,285.1 404.9,280.3 406.2,265.0 412.7,285.0 414.0,279.7 415.3,269.0 419.2,234.9 420.4,247.2 421.7,249.0 423.0,244.6 433.4,223.1 437.3,226.4 438.5,227.2 439.8,208.6 441.1,200.5 442.4,202.6 446.3,256.6 447.6,238.3 448.9,232.4 450.2,220.2 451.5,218.1 455.4,222.2 456.7,222.9 457.9,240.6 459.2,246.6 460.5,244.6 464.4,245.5 465.7,254.3 467.0,255.5 468.3,240.9 469.6,236.5 473.5,236.2 474.8,231.3 476.0,236.2 477.3,241.4 478.6,246.6 482.5,243.9 483.8,226.1 485.1,233.2 486.4,231.4 487.7,218.6 491.6,215.0 492.9,216.9 494.2,202.1 495.4,209.9 496.7,207.9 500.6,207.5 501.9,212.1 503.2,210.3 504.5,200.2 505.8,181.9 509.7,185.1 511.0,180.5 512.3,152.9 513.6,141.7 514.8,138.2 518.7,131.0 520.0,125.4 521.3,133.7 522.6,144.1 523.9,157.4 527.8,155.4 529.1,161.9 530.4,165.9 531.7,153.4 532.9,149.5 536.8,149.2 538.1,144.1 539.4,171.3 540.7,170.0 542.0,176.0" fill="none" stroke="#E60000" stroke-width="2.5" stroke-linejoin="round" stroke-linecap="round" />
<polyline points="70.0,303.8 75.2,280.9 76.5,253.7 77.8,268.0 79.1,273.9 80.3,290.4 84.2,312.9 85.5,297.4 86.8,313.6 88.1,334.5 89.4,346.5 93.3,351.5 94.6,354.2 95.9,349.0 97.2,349.0 98.4,359.4 102.3,350.7 103.6,350.7 104.9,354.3 106.2,354.3 107.5,354.3 111.4,363.0 112.7,350.1 114.0,354.0 115.3,353.4 116.6,348.6 120.4,354.5 121.7,346.5 123.0,329.4 133.4,349.1 134.7,354.8 138.5,382.6 139.8,377.7 141.1,399.6 142.4,405.8 143.7,407.3 147.6,407.3 148.9,404.0 150.2,400.2 151.5,416.3 152.8,395.7 156.6,395.7 157.9,374.4 159.2,348.5 160.5,356.6 161.8,374.4 165.7,386.2 167.0,383.8 168.3,392.8 169.6,393.6 170.9,405.5 174.7,403.0 176.0,403.5 177.3,389.7 178.6,393.4 179.9,384.9 183.8,376.5 185.1,376.1 186.4,380.1 187.7,374.7 189.0,361.2 194.1,368.4 195.4,375.8 196.7,375.4 198.0,381.7 201.9,379.1 203.2,366.9 204.5,360.0 205.8,358.7 207.1,350.2 211.0,347.8 212.2,345.0 213.5,327.3 214.8,330.6 216.1,323.5 220.0,327.4 221.3,323.2 222.6,319.3 223.9,331.3 225.2,328.3 232.9,328.7 234.2,350.8 238.1,356.2 239.4,342.4 240.7,331.2 242.0,329.9 243.3,329.8 247.2,326.9 248.5,321.8 249.7,326.2 251.0,306.5 252.3,309.4 256.2,286.2 257.5,278.1 258.8,280.3 260.1,276.6 261.4,268.8 265.3,259.9 266.6,251.0 267.9,249.1 269.1,237.3 270.4,228.5 274.3,221.4 275.6,261.4 276.9,257.6 278.2,254.5 279.5,270.8 284.7,265.9 286.0,280.8 287.2,256.8 288.5,259.7 292.4,260.1 293.7,253.5 295.0,270.8 296.3,283.8 297.6,280.5 301.5,274.8 302.8,287.0 304.1,284.3 305.4,280.5 306.6,298.5 310.5,289.3 311.8,292.0 313.1,290.0 314.4,299.9 315.7,326.4 319.6,320.7 320.9,313.8 322.2,318.3 323.5,300.6 324.8,305.1 328.6,302.5 329.9,295.8 331.2,299.2 332.5,309.6 333.8,327.7 337.7,353.0 339.0,368.7 340.3,362.9 341.6,362.9 342.9,362.9 346.7,362.9 348.0,362.9 349.3,362.9 350.6,362.9 351.9,362.9 355.8,362.9 357.1,362.9 358.4,373.1 359.7,378.0 361.0,373.6 364.8,372.7 366.1,386.1 367.4,378.3 368.7,381.5 370.0,400.2 373.9,391.3 375.2,389.9 376.5,380.3 377.8,391.3 379.1,391.1 382.9,369.8 384.2,374.9 385.5,349.0 386.8,346.2 388.1,344.9 392.0,326.1 393.3,325.5 394.6,332.6 395.9,333.2 397.2,332.8 401.0,341.3 402.3,340.7 403.6,353.6 404.9,353.1 406.2,329.4 412.7,342.0 414.0,339.5 415.3,327.6 419.2,311.4 420.4,315.5 421.7,319.3 423.0,320.4 433.4,306.6 437.3,310.2 438.5,310.9 439.8,293.6 441.1,292.0 442.4,296.9 446.3,336.8 447.6,321.0 448.9,313.6 450.2,312.5 451.5,308.6 455.4,311.7 456.7,312.8 457.9,321.4 459.2,311.5 460.5,297.1 464.4,283.6 465.7,297.2 467.0,300.3 468.3,277.6 469.6,271.4 473.5,274.7 474.8,281.2 476.0,293.3 477.3,294.2 478.6,301.7 482.5,302.8 483.8,278.0 485.1,280.6 486.4,280.1 487.7,275.0 491.6,267.5 492.9,265.4 494.2,252.9 495.4,258.3 496.7,252.9 500.6,243.6 501.9,247.5 503.2,243.4 504.5,237.4 505.8,226.3 509.7,225.9 511.0,225.8 512.3,195.3 513.6,191.3 514.8,187.0 518.7,181.6 520.0,176.4 521.3,184.1 522.6,193.6 523.9,205.8 527.8,206.6 529.1,207.8 530.4,203.9 531.7,193.3 532.9,199.7 536.8,208.1 538.1,200.0 539.4,227.2 540.7,223.8 542.0,225.2" fill="none" stroke="#E60000" stroke-width="2.5" stroke-linejoin="round" stroke-linecap="round" />
<line x1="84.0" y1="110.0" x2="108.0" y2="110.0" stroke="#E60000" stroke-width="3.0" />
<text x="116.0" y="114.0" font-family="Arial, sans-serif" font-size="12" font-weight="400" fill="#394752" text-anchor="start">Weak reversal</text>
<line x1="242.0" y1="110.0" x2="266.0" y2="110.0" stroke="#E60000" stroke-width="3.0" />
<text x="274.0" y="114.0" font-family="Arial, sans-serif" font-size="12" font-weight="400" fill="#394752" text-anchor="start">Trend-filtered reversal</text>
<line x1="400.0" y1="110.0" x2="424.0" y2="110.0" stroke="#111827" stroke-width="1.2" stroke-dasharray="6 5" />
<text x="432.0" y="114.0" font-family="Arial, sans-serif" font-size="12" font-weight="400" fill="#394752" text-anchor="start">Initial capital</text>
<text x="596.0" y="74.0" font-family="Arial, sans-serif" font-size="15" font-weight="700" fill="#27313a" text-anchor="start">2022H1</text>
<line x1="596.0" y1="452.0" x2="1068.0" y2="452.0" stroke="#e8edf1" stroke-width="1.0" />
<text x="587.0" y="456.0" font-family="Arial, sans-serif" font-size="11" font-weight="400" fill="#66737e" text-anchor="end">65</text>
<line x1="596.0" y1="396.6" x2="1068.0" y2="396.6" stroke="#e8edf1" stroke-width="1.0" />
<text x="587.0" y="400.6" font-family="Arial, sans-serif" font-size="11" font-weight="400" fill="#66737e" text-anchor="end">75</text>
<line x1="596.0" y1="341.2" x2="1068.0" y2="341.2" stroke="#e8edf1" stroke-width="1.0" />
<text x="587.0" y="345.2" font-family="Arial, sans-serif" font-size="11" font-weight="400" fill="#66737e" text-anchor="end">85</text>
<line x1="596.0" y1="285.8" x2="1068.0" y2="285.8" stroke="#e8edf1" stroke-width="1.0" />
<text x="587.0" y="289.8" font-family="Arial, sans-serif" font-size="11" font-weight="400" fill="#66737e" text-anchor="end">95</text>
<line x1="596.0" y1="230.5" x2="1068.0" y2="230.5" stroke="#e8edf1" stroke-width="1.0" />
<text x="587.0" y="234.5" font-family="Arial, sans-serif" font-size="11" font-weight="400" fill="#66737e" text-anchor="end">105</text>
<line x1="596.0" y1="175.1" x2="1068.0" y2="175.1" stroke="#e8edf1" stroke-width="1.0" />
<text x="587.0" y="179.1" font-family="Arial, sans-serif" font-size="11" font-weight="400" fill="#66737e" text-anchor="end">115</text>
<line x1="596.0" y1="119.7" x2="1068.0" y2="119.7" stroke="#e8edf1" stroke-width="1.0" />
<text x="587.0" y="123.7" font-family="Arial, sans-serif" font-size="11" font-weight="400" fill="#66737e" text-anchor="end">125</text>
<line x1="596.0" y1="92.0" x2="596.0" y2="452.0" stroke="#bcc7cf" stroke-width="1.0" />
<line x1="596.0" y1="452.0" x2="1068.0" y2="452.0" stroke="#bcc7cf" stroke-width="1.0" />
<text x="596.0" y="482.0" font-family="Arial, sans-serif" font-size="11" font-weight="400" fill="#66737e" text-anchor="start">2021-12-31</text>
<text x="1068.0" y="482.0" font-family="Arial, sans-serif" font-size="11" font-weight="400" fill="#66737e" text-anchor="end">2022-06-30</text>
<line x1="596.0" y1="258.2" x2="1068.0" y2="258.2" stroke="#111827" stroke-width="1.2" stroke-dasharray="6 5" />
<polyline points="596.0,258.2 606.4,258.6 609.0,270.4 611.6,268.1 614.3,284.2 622.1,284.0 624.7,289.2 627.3,286.8 629.9,309.2 632.5,313.6 640.3,313.6 642.9,306.7 645.5,319.0 648.2,317.4 650.8,312.0 658.6,314.1 661.2,343.4 663.8,343.0 666.4,355.4 669.0,362.0 695.1,364.8 697.7,364.3 700.3,345.4 702.9,346.3 705.5,353.2 713.3,350.5 716.0,340.1 718.6,328.1 721.2,330.6 723.8,322.7 731.6,321.1 734.2,336.1 736.8,329.1 739.4,350.3 742.0,343.7 749.9,342.3 752.5,330.9 755.1,338.7 757.7,355.2 760.3,360.9 768.1,385.0 770.7,389.5 773.3,387.9 775.9,371.2 778.5,365.2 786.4,387.2 789.0,415.6 791.6,414.6 794.2,399.8 796.8,397.7 804.6,387.5 807.2,391.1 809.8,378.2 812.4,392.7 815.0,406.0 822.9,418.6 825.5,427.7 828.1,415.4 830.7,414.5 833.3,405.2 846.3,411.4 849.0,402.7 851.6,410.8 859.4,429.8 862.0,402.3 864.6,394.7 867.2,367.1 869.8,373.3 877.6,362.8 880.2,367.6 882.9,361.8 885.5,375.4 888.1,373.4 895.9,411.4 898.5,404.2 901.1,389.0 903.7,385.4 906.3,382.0 922.0,376.4 924.6,398.0 932.4,401.1 935.0,396.0 937.6,389.5 940.2,384.5 942.8,386.1 950.7,386.3 953.3,377.5 955.9,380.2 958.5,384.6 961.1,366.0 968.9,373.0 971.5,381.8 974.1,376.6 976.7,363.6 979.3,361.7 987.2,344.4 989.8,324.6 992.4,330.1 995.0,332.9 1005.4,327.1 1008.0,317.8 1010.6,305.0 1013.2,318.5 1015.8,311.6 1023.7,314.2 1026.3,307.7 1028.9,305.7 1031.5,311.9 1034.1,304.7 1041.9,282.2 1044.5,292.0 1047.1,296.4 1049.7,294.2 1052.4,283.1 1060.2,269.6 1062.8,276.9 1065.4,288.4 1068.0,258.2" fill="none" stroke="#009900" stroke-width="2.5" stroke-linejoin="round" stroke-linecap="round" />
<polyline points="596.0,258.2 606.4,255.7 609.0,260.2 611.6,270.8 614.3,288.1 622.1,302.1 624.7,302.1 627.3,302.1 629.9,302.1 632.5,302.1 640.3,302.1 642.9,302.1 645.5,302.1 648.2,302.1 650.8,302.1 658.6,282.3 661.2,295.4 663.8,299.0 666.4,301.9 669.0,319.3 695.1,310.2 697.7,325.8 700.3,290.6 702.9,289.9 705.5,291.1 713.3,290.4 716.0,283.0 718.6,286.0 721.2,278.2 723.8,276.1 731.6,271.6 734.2,287.7 736.8,280.2 739.4,305.1 742.0,300.3 749.9,284.3 752.5,263.6 755.1,265.8 757.7,288.3 760.3,286.3 768.1,296.1 770.7,279.9 773.3,248.1 775.9,206.0 778.5,196.7 786.4,227.3 789.0,263.3 791.6,272.2 794.2,218.3 796.8,240.8 804.6,255.0 807.2,271.2 809.8,260.8 812.4,282.2 815.0,303.9 822.9,314.3 825.5,314.3 828.1,314.3 830.7,318.2 833.3,303.8 846.3,307.5 849.0,308.1 851.6,308.7 859.4,333.0 862.0,315.8 864.6,315.8 867.2,280.8 869.8,282.8 877.6,270.1 880.2,274.1 882.9,267.0 885.5,279.6 888.1,276.8 895.9,317.0 898.5,297.9 901.1,290.3 903.7,272.7 906.3,264.6 922.0,261.7 924.6,284.1 932.4,293.3 935.0,282.9 937.6,276.9 940.2,267.0 942.8,276.8 950.7,280.7 953.3,265.9 955.9,273.4 958.5,281.9 961.1,259.7 968.9,250.4 971.5,262.9 974.1,256.5 976.7,255.2 979.3,258.5 987.2,236.4 989.8,213.2 992.4,220.9 995.0,224.5 1005.4,217.6 1008.0,207.5 1010.6,190.8 1013.2,206.5 1015.8,198.9 1023.7,204.2 1026.3,197.9 1028.9,193.5 1031.5,197.7 1034.1,186.3 1041.9,166.8 1044.5,181.8 1047.1,187.0 1049.7,183.3 1052.4,173.0 1060.2,157.5 1062.8,163.3 1065.4,177.5 1068.0,141.0" fill="none" stroke="#E60000" stroke-width="2.5" stroke-linejoin="round" stroke-linecap="round" />
<line x1="610.0" y1="110.0" x2="634.0" y2="110.0" stroke="#009900" stroke-width="3.0" />
<text x="642.0" y="114.0" font-family="Arial, sans-serif" font-size="12" font-weight="400" fill="#394752" text-anchor="start">Weak reversal</text>
<line x1="768.0" y1="110.0" x2="792.0" y2="110.0" stroke="#E60000" stroke-width="3.0" />
<text x="800.0" y="114.0" font-family="Arial, sans-serif" font-size="12" font-weight="400" fill="#394752" text-anchor="start">Trend-filtered reversal</text>
<line x1="926.0" y1="110.0" x2="950.0" y2="110.0" stroke="#111827" stroke-width="1.2" stroke-dasharray="6 5" />
<text x="958.0" y="114.0" font-family="Arial, sans-serif" font-size="12" font-weight="400" fill="#394752" text-anchor="start">Initial capital</text>
<text x="20.0" y="272.0" font-family="Arial, sans-serif" font-size="12" font-weight="400" fill="#64727e" text-anchor="middle" transform="rotate(-90.0 20.0 272.0)">Equity index</text>
</svg>
